# xmcd CD database file
#
# Track frame offsets:
#	150
#	17146
#	32992
#	45876
#	65341
#
# Disc length: 1074 seconds
#
# Revision: 0
# Processed by: cddbd v1.5.2PL0 Copyright (c) Steve Scherf et al.
# Submitted via: CDex 1.70beta2
#
DISCID=36043005
DTITLE=Krzysztof Kiljański - Kolędy
DYEAR=2005
DGENRE=Jazz
TTITLE0=Jezus malusieńki
TTITLE1=Gdy się Chrystus rodzi
TTITLE2=Cicha noc
TTITLE3=Bóg się rodzi
TTITLE4=Mizerna cicha
EXTD=YEAR: 2005
EXTT0=
EXTT1=
EXTT2=
EXTT3=
EXTT4=
PLAYORDER=
